# xmcd
#
# Track frame offsets:
#	150
#	13675
#	30292
#	44027
#	58767
#	73275
#	89110
#	108760
#	124104
#	140552
#	154755
#	169815
#
# Disc length: 2490 seconds
#
# Revision: 0
# Processed by: cddbd v1.5PL3 Copyright (c) Steve Scherf et al.
# Submitted via: dBpowerAMP V4.0
#
DISCID=aa09b80c
DTITLE=T. T. Purontaka - Rakkaus ei saa luovuttaa
DYEAR=2002
DGENRE=Country
TTITLE0=Rakkaus ei saa luovuttaa
TTITLE1=Flirtaten (Pour un flirt)
TTITLE2=Kauneimmat tähdet
TTITLE3=Missä olit kaikki nämä vuodet
TTITLE4=Tähdet näyttää tien
TTITLE5=Merta suurempi kaipuu
TTITLE6=Kaunis on kaipaus
TTITLE7=Kuu ja silta
TTITLE8=Rakkaani
TTITLE9=Kuin myrskytuuli
TTITLE10=Tyttö tummatukkainen
TTITLE11=Vain rakkaus jää
EXTD=
EXTT0=
EXTT1=
EXTT2=
EXTT3=
EXTT4=
EXTT5=
EXTT6=
EXTT7=
EXTT8=
EXTT9=
EXTT10=
EXTT11=
PLAYORDER=
